<svg width="34" height="34" viewBox="0 0 34 34" fill="none" xmlns="http://www.w3.org/2000/svg">
<path d="M4.9585 28.3333C4.39183 28.3333 3.896 28.1208 3.471 27.6958C3.046 27.2708 2.8335 26.775 2.8335 26.2083V7.79163C2.8335 7.22496 3.046 6.72913 3.471 6.30413C3.896 5.87913 4.39183 5.66663 4.9585 5.66663H29.0418C29.6085 5.66663 30.1043 5.87913 30.5293 6.30413C30.9543 6.72913 31.1668 7.22496 31.1668 7.79163V26.2083C31.1668 26.775 30.9543 27.2708 30.5293 27.6958C30.1043 28.1208 29.6085 28.3333 29.0418 28.3333H4.9585ZM17.0002 17.6375L4.9585 9.73954V26.2083H29.0418V9.73954L17.0002 17.6375ZM17.0002 15.5125L28.9002 7.79163H5.13558L17.0002 15.5125ZM4.9585 9.73954V7.79163V26.2083V9.73954Z" fill="#D9D9D9"/>
</svg>
